<svg xmlns="http://www.w3.org/2000/svg" width="150" viewBox="0 0 1200 1200" height="150"><path fill="#191724" d="M836 1194c-190.158 0-379.816.021-569.474-.029-21.514-.005-42.621-3.576-63.081-9.899-15.018-4.642-29.909-10.094-44.18-16.657-22.728-10.452-43.033-24.782-61.89-41.334-21.958-19.274-39.928-41.698-54.611-66.761-14.795-25.253-25.309-52.327-30.578-81.145-2.61-14.274-4.95-28.859-4.97-43.306L7.006 269.4c.001-21.699 3.87-42.855 9.652-63.651 8.211-29.532 21.078-56.93 38.882-81.944 14.019-19.696 30.023-37.481 48.807-52.864 16.536-13.543 34.11-25.357 53.277-34.699 24.59-11.985 50.312-20.734 77.541-24.173 13.117-1.657 26.39-2.929 39.593-2.94l656.969-.118c21.697.001 42.845 3.906 63.643 9.691 29.537 8.216 56.919 21.112 81.93 38.912 19.558 13.919 37.207 29.828 52.522 48.447 14.116 17.162 26.322 35.474 35.882 55.467 11.431 23.909 19.329 48.963 23.407 75.237 2.327 14.988 2.944 29.993 2.939 45.12l-.028 650.47c.004 22.052-3.427 43.652-9.735 64.624-4.621 15.36-10.359 30.513-17.051 45.092-10.366 22.585-24.655 42.723-41.074 61.465-19.254 21.978-41.69 39.939-66.737 54.642-25.24 14.817-52.322 25.319-81.131 30.62-14.271 2.625-28.834 4.644-43.31 4.974-32.146.733-64.32.229-96.983.229M25.023 536.5l.186 385.995c.041 15.909 1.307 32.058 4.234 47.678 22.503 120.062 126.081 205.757 248.19 205.788l643.486-.193c16.549-.024 33.336-1.74 49.602-4.827 116.863-22.185 203.031-125.838 203.175-244.698l.053-649.486c-.003-18.388-2.189-36.571-6.461-54.452-27.746-116.111-128.019-195.264-247.37-195.276-213.662-.021-427.324-.056-640.986.115-13.112.011-26.351.913-39.312 2.862-61.354 9.229-112.722 37.33-153.284 84.211-41.429 47.883-61.498 103.996-61.51 167.288L25.023 536.5z"/><path fill="#faf8ee" d="M25.023 536l.004-254.495c.011-63.292 20.08-119.405 61.51-167.288 40.562-46.88 91.93-74.982 153.284-84.211 12.96-1.949 26.2-2.852 39.312-2.862l640.986-.115c119.351.012 219.624 79.164 247.37 195.276 4.273 17.88 6.458 36.064 6.461 54.452l-.053 649.486c-.144 118.861-86.313 222.514-203.175 244.698-16.266 3.088-33.053 4.803-49.602 4.827l-643.486.193c-122.109-.031-225.687-85.726-248.19-205.788-2.928-15.62-4.193-31.769-4.234-47.678L25.023 536M826.5 456.735c-18.332.001-36.665.03-54.997-.009-9.797-.02-17.697 3.807-23.994 11.265-2.598 3.077-2.935 5.233.077 8.791 25.546 30.174 40.526 64.989 44.546 104.38.806 7.895 1.005 15.852 1.485 23.795h58.888l.023-25.174c.237-15.228 11.411-26.682 25.938-26.752 14.746-.071 26.209 11.555 26.336 26.931l.135 51.497c-.036 14.289-11.039 26.24-25.35 26.245-19.122.008-38.245-1.029-57.368-1.573-4.326-.123-8.669-.28-12.983-.039-7.89.44-15.764 1.165-24.509 1.837-1.488 6.594-4.792 13.588-11.713 18.27-14.129-20.322-15.747-21.556-39.29-29.953 12.698-40.369 9.484-79.362-12.032-115.991s-53.759-59.203-95.477-66.903c-77.692-14.34-152.086 38.059-163.758 117.594-5.521 37.62 3.126 72.305 25.73 102.892 26.551 35.928 62.935 54.325 107.438 57.383l17.97 52.413-44.282-2.044v27.124c-17.525-3.572-34.444-9.066-52.069-1.716l-.078-39.093c-.017-1.576-.626-3.876-1.756-4.598l-42.234-26.431c-7.716 5.651-12.236 14.187-12.221 25.199l.03 118.997c0 1.285.137 2.57.157 2.93 7.458 0 14.604.192 21.731-.088 3.158-.124 4.651 1.075 6.1 3.702 6.83 12.381 17.038 20.693 30.75 24.462l44.722 12.097c3.88 1.033 5.336 2.976 5.31 7.314l-.124 108.997v5.457h6.17l129.996-.102c5.565-.024 11.118-1.474 16.689-2.157 1.208-.148 2.624-.172 3.685.313 11.029 5.045 19.225 12.549 23.17 24.576l24.731 72.617c3.26 9.47 8.745 12.169 17.588 9.128l140.892-48.37 64.052-22.054c8.339-2.887 11.002-8.907 8.115-17.267l-20.044-58.425c-3.772-10.537-3.667-20.688-.079-31.2 18.95-55.526 22.28-111.961 9.34-169.259-1.527-6.763-3.421-13.443-5.246-20.554l37.998-.042c13.586-.212 25.708-9.523 28.108-22.59 1.479-8.052 1.077-16.449 1.533-24.94-2.3 0-3.627.005-4.953-.001l-74.984-.269c-3.424.006-4.899-.942-5.943-4.253-3.195-10.132-6.834-20.123-10.267-30.181l-6.069-18.121h43.212c0-15.378.68-30.413-.136-45.366-1.92-35.171 7.819-49.061 46.288-46.464 4.076.275 8.187.037 12.425.037l-.115-116.09c-.115-13.524-10.712-25.966-24.003-27.471-11.119-1.259-22.495-.258-34.443-.258l-.001 19.507-.019 15.999-.081 34.997c-.367 14.669-12.06 25.582-26.658 25.334-14.048-.239-25.253-11.682-25.471-26.186l-.024-25.961c-21.123 0-41.607.077-62.09-.024-17.266-.085-29.847-12.813-29.962-30.092l-.005-14.021H826.5M155.415 737.096c6.325 5.803 13.765 8.29 22.351 8.219l58.997-.051h10.128v-5.391l.077-110.994c.013-3.752.505-7.717 1.788-11.211 4.255-11.586 16.538-18.482 28.329-16.394 12.688 2.247 21.872 12.647 21.909 25.416l.043 113.494v5.08h26.42l100.495.016c12.029.017 21.1-4.986 27.312-15.315 1.446-2.405 1.523-4.067-.376-6.531-5.579-7.239-10.902-14.7-15.897-22.354-1.908-2.923-3.894-3.857-7.24-3.828l-51.497.092c-8.549.039-15.735-2.934-21.033-9.616-6.562-8.277-7.91-17.575-3.491-27.223 4.596-10.034 12.839-15.142 23.797-15.362 11.945-.24 23.899-.055 36.167-.055l-1.255-6.336c-4.197-21.272-4.879-42.659-1.876-64.13 5.057-36.154 19.329-68.29 42.541-96.429 1.72-2.085 1.669-3.573.45-5.667-6.041-10.386-14.97-15.773-27.031-15.784l-62.497-.007c-4.465 0-8.931 0-13.6 0-.125 1.183-.283 1.976-.282 2.769l.159 65.493c.202 16.727-10.632 28.072-27.34 28.047l-48.497-.021c-15.964-.018-27.558-10.968-27.584-26.024-.026-15.08 11.53-26.089 27.442-26.123l23.414-.003v-43.75c-.538-.162-.838-.332-1.138-.332-40.664-.011-81.328-.162-121.991.077-13.525.08-25.357 9.92-27.522 23.205-1.423 8.729-.979 17.762-1.383 26.928l27.375.001c19.334.018 31.568 12.164 31.584 31.479l.002 122.994c-.013 19.406-12.146 31.55-31.442 31.572l-27.165.002-.023 20.43c-.16 8.933 2.636 16.669 9.38 23.616M570.117 295.84c-2.233-18.979 8.94-31.505 28.165-31.547l55.494-.164c20.427-.453 31.313 10.575 31.159 31.092l-.099 129.492c.002 1.38.782 3.364 1.85 4.045l42.159 26.407c7.605-5.547 12.182-13.934 12.18-24.745l-.044-254.489c-.008-14.362-9.753-26.992-24.031-28.889-10.415-1.384-21.162-.271-32.193-.271l-.003 23.098c-.042 17.653-10.717 28.383-28.303 28.398l-80.996.007h-5.818v5.426l-.014 33.498c-.055 10.277-4.179 18.444-13.188 23.662-17.684 10.242-38.984-2.434-39.147-23.409l-.235-86.992c-.004-1.418-.15-2.836-.237-4.399-8.08 0-15.732-.006-23.385.001-19.997.018-32.444 12.43-32.446 32.39l-.003 184.992.022 67.497c.033 10.748 4.806 18.998 12.26 24.298l39.973-25.153c3.007-1.812 4.098-3.48 4.081-6.892l-.075-78.996c-.003-8.628 2.769-16.115 9.609-21.572 8.425-6.722 17.909-7.983 27.653-3.453 10.204 4.744 15.044 13.315 15.101 24.449l.031 61.997v4.283h62.441V316.69c-11.752 0-23.218.043-34.684-.011-13.889-.065-22.817-6.69-27.275-20.839M203.552 154.025c-37.415 17.872-56.605 47.651-57.412 88.991-.455 23.315-.132 46.646-.071 69.97.139 53.032 42.431 95.485 95.502 95.787l71.97-.006c52.574-.364 94.823-42.549 95.222-95.097V241.2c-.4-52.788-42.871-94.976-95.649-95.129-23.823-.069-47.647-.048-71.471.003-12.964.028-25.451 2.519-38.092 7.951m91.948 901.918l17.498-.004c53.049-.171 95.489-42.463 95.777-95.567l.001-71.492c-.263-53.103-42.603-95.409-95.729-95.657-23.83-.111-47.662-.134-71.492.004-53.092.308-95.356 42.769-95.486 95.849v70.992c.132 53.332 42.571 95.729 95.937 95.866l53.494.009m570.019-906.959c-44.531 12.396-72.138 48.557-72.303 94.843l.122 68.961c.131 7.925 1.07 16.004 2.916 23.706 9.655 40.287 45.446 70.278 86.841 71.622 29.113.945 58.286.046 87.432-.045 1.162-.004 2.334-.103 3.485-.271 46.899-6.825 81.752-46.964 81.914-94.432l-.002-71.961c-.198-52.675-42.696-95.146-95.391-95.333-23.987-.085-47.977-.23-71.96.113-7.423.106-14.825 1.728-23.056 2.797M485.5 946.169h-24.373c.076-.267-.091.048-.092.363l.035 80.877c.106 12.991 9.912 25.582 22.787 27.304 10.865 1.453 22.079.299 33.169.299V946.169H485.5z"/><g fill="#010101"><path d="M827 456.735h26.032l.005 14.021c.115 17.279 12.696 30.007 29.962 30.092l62.09.024.024 25.961c.218 14.504 11.423 25.948 25.471 26.186 14.597.248 26.29-10.664 26.658-25.334.292-11.659.072-23.331.081-34.997l.019-15.999.001-19.507c11.948 0 23.324-1.001 34.443.258 13.291 1.505 23.888 13.948 24.003 27.471l.115 116.09c-4.238 0-8.349.238-12.425-.037-38.47-2.598-48.209 11.292-46.288 46.464.816 14.953.136 29.988.136 45.366h-43.212l6.069 18.121 10.267 30.181c1.044 3.312 2.519 4.26 5.943 4.253l74.984.269 4.953.001c-.456 8.491-.054 16.888-1.533 24.94-2.4 13.066-14.521 22.377-28.108 22.59l-37.998.042 5.246 20.554c12.94 57.297 9.61 113.733-9.34 169.259-3.588 10.512-3.693 20.663.079 31.2l20.044 58.425c2.888 8.36.224 14.38-8.115 17.267l-64.052 22.054-140.892 48.37c-8.843 3.04-14.327.342-17.588-9.128l-24.731-72.617c-3.945-12.027-12.141-19.531-23.17-24.576-1.061-.485-2.478-.461-3.685-.313-5.572.683-11.125 2.134-16.689 2.157l-129.996.102h-6.17v-5.457l.124-108.997c.026-4.338-1.43-6.28-5.31-7.314l-44.722-12.097c-13.711-3.769-23.919-12.081-30.75-24.462-1.449-2.627-2.942-3.826-6.1-3.702-7.128.281-14.274.088-21.731.088-.02-.36-.157-1.645-.157-2.93l-.03-118.997c-.015-11.012 4.505-19.549 12.221-25.199l42.234 26.431c1.129.722 1.738 3.022 1.756 4.598l.078 39.093c17.625-7.35 34.545-1.856 52.069 1.716V791.59l44.282 2.044-17.97-52.413c-44.503-3.058-80.887-21.455-107.438-57.383-22.604-30.586-31.251-65.272-25.73-102.892 11.672-79.535 86.066-131.933 163.758-117.594 41.718 7.7 73.96 30.272 95.477 66.903s24.73 75.622 12.032 115.991c23.543 8.397 25.161 9.632 39.29 29.953 6.921-4.682 10.225-11.676 11.713-18.27l24.509-1.837c4.314-.24 8.657-.084 12.983.039l57.368 1.573c14.311-.006 25.315-11.957 25.35-26.245l-.135-51.497c-.127-15.375-11.59-27.002-26.336-26.931-14.527.07-25.701 11.524-25.938 26.752l-.023 25.174h-58.888c-.48-7.943-.679-15.9-1.485-23.795-4.019-39.392-19-74.207-44.546-104.38-3.012-3.558-2.675-5.714-.077-8.791 6.297-7.459 14.197-11.286 23.994-11.265l55.497.009m131.631 320.188l-24.696-72.115c-6.032-17.711-22.018-26.431-38.856-20.965-15.84 5.142-24.645 22.987-18.241 39.66 4.82 12.548 8.744 25.439 13.104 38.165 2.728 7.963.561 14.05-6.005 16.643-6.246 2.467-12.648-1.035-15.62-8.564-.243-.617-.347-1.287-.563-1.916l-23.658-68.77c-5.791-16.301-22.239-24.332-37.64-18.942-16.239 5.684-24.269 22.015-18.709 38.614l24.38 71.7c1.799 5.277.668 9.34-3.654 12.854-3.93 3.195-8.72 3.842-12.836.506-2.649-2.147-4.843-5.499-5.993-8.751l-23.714-68.759c-4.597-13.342-8.701-26.895-14.101-39.907-5.841-14.076-20.291-20.177-35.645-16.357-12.699 3.16-22.231 16.162-21.136 30.199.455 5.834 2.6 11.618 4.513 17.243l34.266 99.899c1.842 5.364.169 10.35-4.485 13.563-4.216 2.911-9.947 2.719-13.746-1.176-2.113-2.167-3.769-5.103-4.762-7.991l-66.053-192.762-12.566-36.249c-7.218-19.266-29.059-26.091-45.35-14.44-10.964 7.842-15.118 22.312-10.372 36.188l41.768 122.078L655.089 843.5c1.923 5.461 2.329 9.98-1.574 14.249-3.922 4.289-8.76 3.589-13.884 2.323l-93.47-22.804c-17.621-4.338-35.726 6.392-40.079 24.244-3.994 16.379 5.823 34.01 20.2 38.478 9.35 2.906 18.659 6.2 28.229 8.099 33.06 6.56 59.374 23.266 79.182 50.518 6.749 9.286 13.713 18.465 21.21 27.146 13.389 15.503 28.345 29.138 48.287 35.922 8.331 2.834 16.805 5.272 25.038 8.359 22.457 8.421 38.491 22.847 44.944 46.963 3.512 13.126 8.595 25.834 13 38.72l6.92 19.891 186.921-64.313-16.44-47.999c-6.217-16.703-5.854-32.946-.024-49.712 13.538-38.936 17.827-79.011 13.784-120.071-2.58-26.196-9.405-51.27-18.701-76.592M641.616 527.846c-31.513-17.213-68.18-13.745-95.189 9.001-25.852 21.772-35.858 57.957-25.184 90.187 9.178 27.711 34.292 48.372 52.892 51.784l-.762-2.399-19.498-57.557c-2.953-8.732-3.314-17.647-1.345-26.59 5.212-23.667 24.394-40.323 48.335-42.155 23.555-1.802 44.402 11.826 53.035 34.979 3.652 9.795 6.772 19.788 10.166 29.68l9.157 26.455c22.581-39.378 8.793-88.804-31.609-113.385zM155.161 736.845c-6.49-6.697-9.286-14.433-9.126-23.366.119-6.631.023-13.266.023-20.43l27.165-.002c19.297-.022 31.429-12.167 31.442-31.572l-.002-122.994c-.015-19.315-12.25-31.461-31.584-31.479l-27.375-.001c.404-9.165-.039-18.198 1.383-26.928 2.165-13.286 13.997-23.126 27.522-23.205l121.991-.077c.3 0 .6.17 1.138.332v43.75c-7.863 0-15.639-.014-23.414.003-15.912.034-27.468 11.043-27.442 26.123.026 15.056 11.62 26.006 27.584 26.024l48.497.021c16.707.026 27.542-11.319 27.34-28.047l-.159-65.493c-.001-.793.157-1.586.282-2.769h13.6l62.497.007c12.061.011 20.99 5.399 27.031 15.784 1.219 2.095 1.27 3.583-.45 5.667-23.212 28.139-37.484 60.275-42.541 96.429-3.003 21.47-2.321 42.857 1.876 64.13l1.255 6.336c-12.268 0-24.222-.185-36.167.055-10.959.22-19.201 5.327-23.797 15.362-4.419 9.648-3.072 18.946 3.491 27.223 5.298 6.682 12.484 9.655 21.033 9.616l51.497-.092c3.346-.03 5.333.904 7.24 3.828 4.994 7.654 10.318 15.114 15.897 22.354 1.899 2.464 1.822 4.126.376 6.531-6.212 10.329-15.283 15.332-27.312 15.315l-100.495-.016h-26.42v-5.08l-.043-113.494c-.037-12.769-9.221-23.169-21.909-25.416-11.791-2.088-24.074 4.808-28.329 16.394-1.283 3.494-1.775 7.459-1.788 11.211l-.077 110.994v5.391h-10.128c-19.666 0-39.332-.112-58.997.051-8.586.071-16.027-2.416-22.605-8.469zm415.04-440.584c4.374 13.728 13.302 20.353 27.191 20.418l34.684.011v93.211h-62.441v-4.283l-.031-61.997c-.057-11.134-4.897-19.705-15.101-24.449-9.744-4.53-19.228-3.269-27.653 3.453-6.84 5.457-9.612 12.944-9.609 21.572l.075 78.996c.017 3.412-1.074 5.08-4.081 6.892-13.216 7.965-26.152 16.395-39.973 25.153-7.455-5.3-12.227-13.55-12.26-24.298l-.022-67.497.003-184.992c.003-19.961 12.449-32.372 32.446-32.39l23.385-.001c.088 1.564.234 2.981.237 4.399l.235 86.992c.163 20.975 21.463 33.651 39.147 23.409 9.01-5.218 13.133-13.385 13.188-23.662l.014-33.498v-5.426h5.818l80.996-.007c17.586-.015 28.261-10.746 28.303-28.398l.003-23.098c11.03 0 21.777-1.113 32.193.271 14.278 1.897 24.023 14.527 24.031 28.889l.044 254.489c.002 10.811-4.575 19.198-12.18 24.745l-42.159-26.407c-1.068-.681-1.848-2.665-1.85-4.045l.099-129.492c.154-20.517-10.732-31.545-31.159-31.092-18.49.41-36.995.124-55.494.164-19.225.042-30.398 12.568-28.08 31.969zM203.912 153.893c12.281-5.301 24.768-7.791 37.732-7.819l71.471-.003c52.778.153 95.25 42.341 95.649 95.129v72.47c-.399 52.548-42.648 94.733-95.222 95.097l-71.97.006c-53.071-.302-95.363-42.755-95.502-95.787l.071-69.97c.807-41.341 19.997-71.119 57.772-89.123m9.742 172.892c10.714 15.222 25.325 23.163 43.987 23.323l39.477.009c29.773-.173 52.81-23.162 52.998-52.894l.007-38.977c-.111-30.414-22.91-53.323-53.338-53.55l-38.477-.004c-30.75.184-53.458 22.966-53.617 53.778l-.044 37.478c-.124 10.968 2.66 21.036 9.008 30.837zM295 1055.943c-17.998-.001-35.496.036-52.994-.009-53.366-.137-95.805-42.534-95.937-95.866v-70.992c.13-53.079 42.394-95.54 95.486-95.849l71.492-.004c53.126.248 95.467 42.554 95.729 95.657l-.001 71.492c-.288 53.104-42.728 95.396-95.777 95.567l-17.998.004m47.06-179.427c-11.052-16.45-26.413-24.77-46.306-24.66-12.659.07-25.319-.044-37.978.026-29.8.164-52.737 22.95-53.069 52.805l.004 39.976c.379 29.643 23.064 52.278 52.731 52.629h39.976c29.831-.357 52.55-23.323 52.701-53.172l.043-38.477c.104-10.264-2.438-19.735-8.102-29.126z"/><path d="M865.928 148.914c7.821-.998 15.223-2.621 22.646-2.727l71.96-.113c52.695.187 95.193 42.658 95.391 95.333l.002 71.961c-.162 47.469-35.015 87.607-81.914 94.432a24.81 24.81 0 0 1-3.485.271c-29.146.091-58.319.99-87.432.045-41.395-1.344-77.186-31.336-86.841-71.622-1.846-7.703-2.785-15.781-2.916-23.706l-.122-68.961c.165-46.286 27.772-82.447 72.712-94.914m110.759 190.328c13.903-11.128 20.772-25.576 20.651-43.404l-.047-38.478c-.378-29.651-23.046-52.295-52.712-52.651h-39.977c-29.834.352-52.569 23.315-52.721 53.154l-.001 38.978c.137 30.091 23.094 53.118 53.122 53.278l37.478.063c12.443.23 23.615-3.214 34.207-10.939zM486 946.169h31.027v108.843c-11.089 0-22.303 1.154-33.169-.299-12.876-1.722-22.681-14.313-22.787-27.304l-.035-80.877c0-.315.167-.63.092-.363H486z"/></g><path fill="#faf8ee" d="M958.762 777.293c9.165 24.952 15.99 50.025 18.57 76.222 4.044 41.06-.246 81.135-13.784 120.071-5.829 16.766-6.193 33.01.024 49.712 5.84 15.689 10.885 31.673 16.44 47.999l-186.921 64.313-6.92-19.891c-4.405-12.886-9.488-25.593-13-38.72-6.453-24.116-22.487-38.542-44.944-46.963-8.233-3.087-16.708-5.525-25.038-8.359-19.941-6.784-34.898-20.419-48.287-35.922-7.498-8.682-14.461-17.861-21.21-27.146-19.807-27.252-46.121-43.958-79.182-50.518-9.57-1.899-18.878-5.193-28.229-8.099-14.377-4.469-24.194-22.1-20.2-38.478 4.353-17.851 22.458-28.582 40.079-24.244l93.47 22.804c5.124 1.265 9.963 1.966 13.884-2.323 3.903-4.269 3.497-8.788 1.574-14.249l-36.826-106.929-41.768-122.078c-4.746-13.876-.592-28.346 10.372-36.188 16.291-11.651 38.132-4.827 45.35 14.44 4.485 11.972 8.424 24.149 12.566 36.249l66.053 192.762c.993 2.888 2.649 5.824 4.762 7.991 3.799 3.895 9.53 4.087 13.746 1.176 4.653-3.214 6.326-8.199 4.485-13.563l-34.266-99.899c-1.913-5.624-4.058-11.409-4.513-17.243-1.095-14.037 8.437-27.039 21.136-30.199 15.354-3.82 29.804 2.281 35.645 16.357 5.399 13.013 9.504 26.566 14.101 39.907l23.714 68.759c1.15 3.253 3.344 6.604 5.993 8.751 4.116 3.336 8.906 2.689 12.836-.506 4.322-3.514 5.453-7.577 3.654-12.854l-24.38-71.7c-5.56-16.599 2.469-32.931 18.709-38.614 15.401-5.39 31.849 2.641 37.64 18.942l23.658 68.77c.216.629.32 1.299.563 1.916 2.972 7.529 9.374 11.032 15.62 8.564 6.566-2.594 8.733-8.68 6.005-16.643-4.36-12.726-8.284-25.617-13.104-38.165-6.404-16.673 2.401-34.517 18.241-39.66 16.838-5.466 32.824 3.254 38.856 20.965l24.827 72.485z"/><path fill="#f9f7ed" d="M641.947 528.009c40.071 24.418 53.859 73.844 31.278 113.222l-9.157-26.455-10.166-29.68c-8.633-23.152-29.479-36.781-53.035-34.979-23.941 1.832-43.123 18.488-48.335 42.155-1.97 8.943-1.609 17.858 1.345 26.59l19.498 57.557c.259.765.489 1.539.762 2.399-18.601-3.412-43.714-24.072-52.892-51.784-10.675-32.229-.668-68.415 25.184-90.187 27.009-22.746 63.676-26.214 95.519-8.839z"/><path d="M213.426 326.499c-6.12-9.515-8.904-19.583-8.78-30.551l.044-37.478c.159-30.812 22.867-53.594 53.617-53.778l38.477.004c30.428.226 53.227 23.136 53.338 53.55l-.007 38.977c-.188 29.731-23.225 52.721-52.998 52.894-13.159.076-26.319.104-39.477-.009-18.663-.16-33.274-8.101-44.215-23.609m49.085-22.39c1.194.582 2.356 1.246 3.587 1.733a30.59 30.59 0 0 0 35.126-9.24c8.436-10.429 9.063-25.045 1.555-36.265-7.421-11.09-21.396-16.253-34.208-12.179-11.989 3.813-19.483 12.203-21.322 24.606-1.966 13.259 3.313 23.699 15.262 31.345zm79.734 572.722c5.479 9.076 8.022 18.547 7.918 28.811l-.043 38.477c-.151 29.85-22.869 52.815-52.701 53.172h-39.976c-29.668-.351-52.352-22.986-52.731-52.629l-.004-39.976c.332-29.855 23.269-52.641 53.069-52.805l37.978-.026c19.893-.11 35.254 8.209 46.491 24.975m-34.277 45.888c-.265-1.636-.437-3.293-.808-4.904-3.932-17.08-20.786-27.224-37.764-22.755-16.603 4.37-26.381 22.266-21.192 38.785 4.461 14.203 19.025 23.241 33.889 21.032 15.048-2.236 25.672-15.06 25.875-32.159zm668.449-583.239c-10.322 7.489-21.494 10.933-33.937 10.703-12.489-.231-24.985.004-37.478-.063-30.027-.16-52.984-23.187-53.122-53.278l.001-38.978c.152-29.839 22.886-52.802 52.721-53.154h39.977c29.666.357 52.334 23 52.712 52.651l.047 38.478c.121 17.828-6.748 32.276-20.921 43.64m-64.951-89.659c-15.287 8.137-21.466 24.487-14.98 39.639a30.48 30.48 0 0 0 38.088 16.804c16.173-5.633 24.559-23.105 18.79-39.145-6.033-16.772-23.592-24.295-41.898-17.298z" fill="#faf8ee"/><path d="M262.178 303.948c-11.616-7.484-16.895-17.924-14.929-31.184 1.839-12.402 9.332-20.793 21.322-24.606 12.813-4.075 26.788 1.089 34.208 12.179 7.508 11.22 6.881 25.836-1.555 36.265a30.59 30.59 0 0 1-35.126 9.24c-1.232-.487-2.393-1.151-3.92-1.894zm45.803 619.218c-.217 16.652-10.841 29.476-25.889 31.712-14.865 2.209-29.428-6.83-33.889-21.032-5.189-16.52 4.589-34.416 21.192-38.785 16.978-4.469 33.832 5.675 37.764 22.755.371 1.611.544 3.268.823 5.351zm603.823-673.528c17.969-6.815 35.528.708 41.56 17.48 5.769 16.04-2.617 33.511-18.79 39.145a30.48 30.48 0 0 1-38.088-16.804c-6.486-15.152-.307-31.502 15.318-39.821z" fill="#020202"/></svg>